
<svg version="1.1" xmlns="http://www.w3.org/2000/svg" xmlns:xlink="http://www.w3.org/1999/xlink"  width="65px" height="65px" >

    <path id="G" fill="#53b8e7" d="M63.86 29L50 29L50 31L62 31L62 32C 62.01617 47.22234 50.62922 60.04388 35.51152 61.82566C 20.39382 63.60743 6.33799 53.78458 2.814665 38.9756C -0.7086601 24.16662 7.417484 9.066277 21.71781 3.848969C 36.01814 -1.36834 51.95914 4.951385 58.8 18.55L58.8 18.55L60.6 17.65C 53.31657 3.13805 36.31913 -3.61879 21.06029 1.932138C 5.801449 7.483067 -2.88142 23.58201 0.862072 39.38173C 4.605564 55.18145 19.58865 65.67313 35.71595 63.78761C 51.84325 61.9021 64.00208 48.23714 64 32C 64 31 63.95 30 63.86 29z" />
	
    <path id="C" fill="#3b8aaf" d="M49 23.47L50.79 22.57C 46.41806 13.81445 36.57784 9.239443 27.06566 11.53988C 17.55348 13.84031 10.89128 22.40627 11.0034 32.19202C 11.11551 41.97778 17.97221 50.38885 27.5346 52.47076C 37.09698 54.55266 46.8298 49.75342 51 40.9L51 40.9L49.19 40C 45.42759 48.02146 36.62045 52.3777 27.96169 50.50007C 19.30294 48.62244 13.0913 41.00941 12.98947 32.15C 12.88764 23.29059 18.92265 15.5368 27.53596 13.46064C 36.14928 11.38449 45.05421 15.53714 49 23.47z"/>

</svg>  